<svg id="Layer_1" data-name="Layer 1" xmlns="http://www.w3.org/2000/svg" width="48" height="50" viewBox="0 0 48 50">
<g style =".cls-1{fill:#141f38;}">
<title>chat-bubble-smile-glyph</title>
<path class="cls-1" d="M52.51,417.38v48.67a6.56,6.56,0,0,0,11.2,4.64l50.59-50.59H334.77A72.29,72.29,0,0,0,407,347.9V300.38a137.58,137.58,0,0,1-19.69,1.57c-76,0-137.85-61.84-137.85-137.85A137.7,137.7,0,0,1,251,144.41H72.21A72.29,72.29,0,0,0,0,216.62V347.9A72.44,72.44,0,0,0,52.51,417.38Zm59.08-194.2h65.64a6.56,6.56,0,1,1,0,13.13H111.59a6.56,6.56,0,1,1,0-13.13Zm0,52.51h105a6.56,6.56,0,1,1,0,13.13h-105a6.56,6.56,0,1,1,0-13.13Zm0,52.51H295.38a6.56,6.56,0,0,1,0,13.13H111.59a6.56,6.56,0,1,1,0-13.13ZM387.28,39.38A124.72,124.72,0,1,0,512,164.1,124.86,124.86,0,0,0,387.28,39.38ZM361,124.72a13.13,13.13,0,1,1-13.13,13.13A13.13,13.13,0,0,1,361,124.72Zm60.44,70a45.77,45.77,0,0,1-68.37,0,6.56,6.56,0,0,1,9.83-8.71,32.65,32.65,0,0,0,48.73,0,6.56,6.56,0,1,1,9.82,8.71ZM413.54,151a13.13,13.13,0,1,1,13.13-13.13A13.13,13.13,0,0,1,413.54,151Z"/>
</svg>